$MeshFormat
2.2 0 8
$EndMeshFormat
$Nodes
422
1 0.01 0 0
2 0 0.01 0
3 -0.01 0 0
4 0 -0.01 0
5 0.009945218953683683 0.001045284632667497 0
6 0.009781476007341834 0.002079116908159815 0
7 0.00951056516295996 0.003090169943723547 0
8 0.00913545457643912 0.004067366430728553 0
9 0.008660254037856821 0.004999999999978464 0
10 0.008090169943759763 0.005877852522910572 0
11 0.007431448254780724 0.006691306063581051 0
12 0.00669130606359039 0.007431448254772314 0
13 0.0058778525229202 0.008090169943752766 0
14 0.00499999999998819 0.008660254037851206 0
15 0.004067366430738206 0.009135454576434823 0
16 0.003090169943731457 0.009510565162957389 0
17 0.002079116908165241 0.009781476007340683 0
18 0.001045284632670254 0.009945218953683393 0
19 -0.001045284632667497 0.009945218953683683 0
20 -0.002079116908159815 0.009781476007341834 0
21 -0.003090169943723547 0.00951056516295996 0
22 -0.004067366430728553 0.00913545457643912 0
23 -0.004999999999978464 0.008660254037856821 0
24 -0.005877852522910572 0.008090169943759763 0
25 -0.006691306063581051 0.007431448254780724 0
26 -0.007431448254772314 0.00669130606359039 0
27 -0.008090169943752766 0.0058778525229202 0
28 -0.008660254037851206 0.00499999999998819 0
29 -0.009135454576434823 0.004067366430738206 0
30 -0.009510565162957389 0.003090169943731457 0
31 -0.009781476007340683 0.002079116908165241 0
32 -0.009945218953683393 0.001045284632670254 0
33 -0.009945218953683683 -0.001045284632667497 0
34 -0.009781476007341834 -0.002079116908159815 0
35 -0.00951056516295996 -0.003090169943723547 0
36 -0.00913545457643912 -0.004067366430728553 0
37 -0.008660254037856821 -0.004999999999978464 0
38 -0.008090169943759763 -0.005877852522910572 0
39 -0.007431448254780724 -0.006691306063581051 0
40 -0.00669130606359039 -0.007431448254772314 0
41 -0.0058778525229202 -0.008090169943752766 0
42 -0.00499999999998819 -0.008660254037851206 0
43 -0.004067366430738206 -0.009135454576434823 0
44 -0.003090169943731457 -0.009510565162957389 0
45 -0.002079116908165241 -0.009781476007340683 0
46 -0.001045284632670254 -0.009945218953683393 0
47 0.001045284632667497 -0.009945218953683683 0
48 0.002079116908159815 -0.009781476007341834 0
49 0.003090169943723547 -0.00951056516295996 0
50 0.004067366430728553 -0.00913545457643912 0
51 0.004999999999978464 -0.008660254037856821 0
52 0.005877852522910572 -0.008090169943759763 0
53 0.006691306063581051 -0.007431448254780724 0
54 0.007431448254772314 -0.00669130606359039 0
55 0.008090169943752766 -0.0058778525229202 0
56 0.008660254037851206 -0.00499999999998819 0
57 0.009135454576434823 -0.004067366430738206 0
58 0.009510565162957389 -0.003090169943731457 0
59 0.009781476007340683 -0.002079116908165241 0
60 0.009945218953683393 -0.001045284632670254 0
61 -3.757378311274806e-07 7.335594248476389e-05 0
62 0.004687817836281219 0.001310005978858044 0
63 -0.001358194279064507 0.004736075856785761 0
64 0.001356779257462381 -0.0047997734380873 0
65 -0.004714772323967859 -0.001209410461318657 0
66 0.002937571309288371 0.005129181543959233 0
67 -0.002900375249608724 -0.005129795552509878 0
68 -0.0052038663298997 0.002926937065986279 0
69 0.004889914426770416 -0.002864728562246604 0
70 -0.002728814332018923 0.0007393980866057736 0
71 0.002056382713713158 0.002095934562871956 0
72 0.002113933969691789 -0.002058822331966146 0
73 -0.0007824319877451614 -0.002902461241827236 0
74 -0.007008979224142792 0.0007732530235636662 0
75 0.007004146300991523 -0.0007580635381213842 0
76 0.0007557956311005621 0.006968223697038912 0
77 -0.0007732530235636662 -0.007008979224142792 0
78 -0.005687354352560884 -0.004160019948922798 0
79 0.005683649114927557 0.004174968057712955 0
80 0.00416299073835381 -0.005696377332509033 0
81 -0.004101561590927484 0.005747247384250151 0
82 -0.007319816439610908 -0.001975833405920459 0
83 -0.001928412506126494 0.007423902265940734 0
84 0.007319816439610908 0.001975833405920459 0
85 0.001975833405920459 -0.007319816439610908 0
86 -0.0004193403472453339 0.002445635669343157 0
87 0.003047958406667706 8.757318543168101e-05 0
88 -0.002601938541887055 -0.001465825461943246 0
89 -0.002856073485203722 0.003123762868897647 0
90 0.002933171058273415 0.007018786030238301 0
91 0.007235364904501095 -0.002866605092053706 0
92 -0.007235364904501095 0.002866605092053706 0
93 -0.002866605092053706 -0.007235364904501095 0
94 0.0007345055635438995 0.004094319345024488 0
95 -0.006095827617281591 0.004601789465055519 0
96 0.004672572773129002 0.00612691747888371 0
97 0.00612691747888371 -0.004672572773129002 0
98 -0.004672572773129002 -0.00612691747888371 0
99 0.004849192104629434 -0.0007444394635573934 0
100 -0.003828059141243171 -0.003070061062698884 0
101 -0.004973213639759331 0.000761095583319762 0
102 -0.000804562142516451 -0.004941923098060273 0
103 0.003079118085568493 -0.003952298936833347 0
104 0.003922197089761172 0.003147316962691102 0
105 0.0004242860802970303 -0.00167405558016144 0
106 -0.0004836616193128914 0.008206019447681359 0
107 0.0004853999223121087 -0.008196872056222345 0
108 -0.008196872056222345 -0.0004853999223121087 0
109 0.008196872056222345 0.0004853999223121087 0
110 0.003678160640716765 -0.00734259494802036 0
111 -0.007334353090601472 -0.003673817905790089 0
112 0.00734259494802036 0.003678160640716765 0
113 -0.003780996021885067 0.007454851509688367 0
114 0.00104137420296174 -0.00326022443013995 0
115 -0.001271627040529071 0.001078218323004892 0
116 0.001397827828674675 0.0008820771281052302 0
117 -0.002880966044435174 0.004722733060640415 0
118 0.008259171308864749 -0.001650222146840259 0
119 0.001525827312549966 0.00831218082346933 0
120 -0.008259171308864749 0.001650222146840259 0
121 -0.001650222146840259 -0.008259171308864749 0
122 -0.005476323387416742 0.00645523554683333 0
123 0.006338753340760174 0.005557225226701573 0
124 0.005555922104715797 -0.006337553199037197 0
125 -0.006337553199037197 -0.005555922104715797 0
126 0.0006540692932180845 -0.006309111138024076 0
127 -0.0007504400599909812 0.006381707888419916 0
128 -0.006309111138024076 -0.0006540692932180846 0
129 0.006289615756808284 0.000678579384484057 0
130 0.002576559920229232 -0.0058193451807608 0
131 -0.005787930432749968 -0.002574499616095514 0
132 0.005792558882506465 0.002605473668388777 0
133 -0.001053534333503999 -0.001202913272276357 0
134 0.003672322107727542 -0.001928488319572224 0
135 -0.002219741258276937 -0.003504593722156615 0
136 0.001637844103108454 0.005662015403755874 0
137 -0.00430909115809611 0.004145718178057541 0
138 0.002247852531899153 0.00373819742227481 0
139 -0.003626616345357136 -0.0003955821053936494 0
140 0.003305388440303703 0.0014879108754168 0
141 -0.00382200367035959 0.002122573796847132 0
142 0.004329215534383075 0.004694460863770602 0
143 0.004751142735726632 -0.00438888370639519 0
144 -0.004369637903930201 -0.004707838384541912 0
145 0.006092792308862951 -0.001889792506085252 0
146 -0.006184715184579288 0.001872449850345898 0
147 -0.001897112842433478 -0.006157359694808581 0
148 0.001416966700898551 -0.0006895446612474765 0
149 -0.002664084315494817 0.006035322067099694 0
150 -0.007477097725619116 0.004276192218536445 0
151 0.004276192218536445 0.007477097725619116 0
152 0.007477097725619116 -0.004276192218536445 0
153 -0.004276192218536445 -0.007477097725619116 0
154 -0.001264411813926965 0.003585534431161626 0
155 -0.001985231168258197 -2.869488557883753e-05 0
156 0.0008498250971021046 0.00297676181869054 0
157 0.000325656298514768 0.001155286102095318 0
158 -0.001728679397672793 0.002020978136760314 0
159 -2.003823468516419e-05 -0.003658887357342243 0
160 0.0002864531822817642 0.005472091891787201 0
161 -0.008519941070760692 -0.002284291758231398 0
162 -0.002284130273192198 0.008524556182289747 0
163 0.002284291758231398 -0.008519941070760692 0
164 0.008519941070760692 0.002284291758231398 0
165 -0.00603175712142453 0.003587282393970909 0
166 0.003554950734524618 0.006039659799153339 0
167 0.006032793351051527 -0.003600092210275582 0
168 -0.003642883271456138 -0.005972192240328756 0
169 -0.00372523368470636 -0.001822076683274115 0
170 0.00413958164524008 0.0002940343641252414 0
171 0.008782471756651729 -0.0005929288306880853 0
172 0.0005453716558437768 0.008896424410008085 0
173 -0.008782525455797855 0.0005930976027485551 0
174 -0.0005930976027485551 -0.008782525455797855 0
175 -0.004917518840290915 0.007461588237428653 0
176 0.007323020539894667 0.004907340241359978 0
177 0.004907231647861163 -0.007322920528084419 0
178 -0.007315022081391318 -0.004903069860223099 0
179 -0.0003900589826426716 0.004200520902335408 0
180 0.002954277805038612 -0.0009748479559015101 0
181 -0.00205783281514508 -0.002391947664153583 0
182 0.001829096787242263 0.006759705133430769 0
183 0.005993329007511448 -0.0003940143135056485 0
184 -0.004994234723777819 -0.003340778215828913 0
185 0.003251445842935853 0.00849783842761417 0
186 0.00849783842761417 -0.003251445842935853 0
187 -0.00849783842761417 0.003251445842935853 0
188 -0.003251445842935853 -0.00849783842761417 0
189 0.001945529242673619 -0.003846186377706309 0
190 -0.007069937958523128 0.005736859316482292 0
191 0.005736859316482292 0.007069937958523128 0
192 0.007064217667253022 -0.005738185261853424 0
193 -0.005738185261853424 -0.007064217667253022 0
194 -0.004972993464449758 0.005024567530759698 0
195 -0.003824819183739153 0.003138893650811724 0
196 0.0003674174076988828 -0.005230244697418028 0
197 -0.005335662164046361 -0.0003170847932200956 0
198 0.004779082404028221 0.002395332124378213 0
199 0.003345750794609616 -0.005058386890355524 0
200 -0.001907433073928702 -0.004642754021409567 0
201 0.0039157489891623 -0.003106271817287207 0
202 -0.001674932177031878 0.005875765998659266 0
203 0.002833908439130543 -0.002813763746876261 0
204 0.003305927591162341 0.004097031517437728 0
205 -0.003527119398528374 -0.004214638638720035 0
206 0.005120270496410746 -0.001854056250107008 0
207 -0.006037815541678253 0.000458730941526502 0
208 -0.0004775259817408906 -0.006006872093170805 0
209 0.004999155809567527 0.003418610578405991 0
210 0.005298441514221778 0.005140413247125955 0
211 0.005148959269466906 -0.005306610965564962 0
212 -0.005303398845102198 -0.005143215472442089 0
213 -0.004784408696722049 0.001848785413714944 0
214 -0.00108575158905186 -0.003894610167114305 0
215 0.007150402896927689 -0.001811018429946587 0
216 -0.007156175652086851 0.001809188398174221 0
217 -0.001810033433824345 -0.007148101802074878 0
218 0.002839087632102482 0.002884986828907182 0
219 0.00244317358446625 0.001094997680907446 0
220 0.001718486230246409 0.004593189482111391 0
221 0.0002125197931742173 -0.002651613634100377 0
222 -0.003864438880659996 0.001073471565780759 0
223 0.008941507463559343 0.001306721645388598 0
224 -0.001306510557828774 0.008943036630558019 0
225 0.001306721645388598 -0.008941507463559343 0
226 -0.008941507463559343 -0.001306721645388598 0
227 -0.008396073821255649 -0.003338913641894946 0
228 -0.003355884968332517 0.008403794529626894 0
229 0.00333939616799791 -0.008396989583191081 0
230 0.008396989583191081 0.00333939616799791 0
231 0.007260251289499781 0.0009928094408230294 0
232 -0.007262417442968201 -0.0009900860973490325 0
233 0.0009900860973490325 -0.007262417442968201 0
234 -0.0009916610426092781 0.00729585036267498 0
235 0.002792859439122984 -0.006788644575220046 0
236 -0.006784238285727854 -0.002792147990338496 0
237 0.006785668319858453 0.002796072077807378 0
238 0.002519690140413585 0.005985146251831568 0
239 0.005249869308625066 0.00041000448520626 0
240 -0.004751136806121627 -0.002272964203690228 0
241 -0.005228418518397743 0.004009573814642992 0
242 -0.002794639537350469 0.001957617350393947 0
243 0.001143304966300143 0.001945027572506561 0
244 -0.005737993711104463 -0.001534896404484027 0
245 0.005728501456184402 0.00157026471627191 0
246 0.001557481777504214 -0.005748539870821049 0
247 -0.001039079009468054 -1.938371290429137e-06 0
248 0.002310251754998381 -0.004864127773055099 0
249 -0.002191065377286729 0.004086676048863712 0
250 0.00119176701090768 -0.002308701973374168 0
251 -0.00293931885329726 -0.002576662200360183 0
252 0.003837749255878709 -0.0007471520438808699 0
253 -0.0004549840919194874 -0.001919473656355797 0
254 0.0005949434021952964 -0.0007528326095311318 0
255 -0.004376371204250805 0.006619428207633534 0
256 0.006554311506091359 0.004209144538825758 0
257 0.00420753308377803 -0.006555995266860856 0
258 -0.006566497883434803 -0.004210883734452666 0
259 0.007779994374191298 -0.000366539640208301 0
260 0.0005278179906179263 0.007828063279089564 0
261 -0.007780638763944801 0.0003685649049339386 0
262 -0.0003685649049339386 -0.007780638763944801 0
263 -0.006461310870340648 0.00650884280672004 0
264 0.006492498550372383 0.006473017714054796 0
265 0.006461289616182811 -0.006481697274865593 0
266 -0.006481697274865593 -0.006461289616182811 0
267 0.002358990490090036 0.00883911492012553 0
268 0.00883911492012553 -0.002358990490090036 0
269 -0.00883911492012553 0.002358990490090036 0
270 -0.002358990490090036 -0.00883911492012553 0
271 -0.003313169175681824 0.003983844958821214 0
272 0.001870418334216045 -0.002872713958166318 0
273 -0.00286524292108635 0.007581972159720083 0
274 -0.0004513822880288938 0.009195729319290533 0
275 0.009179112091048661 0.0004453012501241916 0
276 0.0004452787471827957 -0.009179119250934812 0
277 -0.009179119250934812 -0.0004452787471827957 0
278 -0.008171693137656803 -0.004203101469758426 0
279 -0.004221581259438474 0.008208331175456199 0
280 0.004204299742914119 -0.008173967279796459 0
281 0.008173980614704493 0.004204314222047295 0
282 -0.002769897009625802 -0.0004045181441083941 0
283 0.001490840315208927 0.009144430471747345 0
284 -0.001513789752701603 -0.009122176009238704 0
285 -0.009122176009238704 0.001513789752701603 0
286 0.009122168849352554 -0.001513767249760207 0
287 0.00804400203081255 0.001427110096826539 0
288 -0.008044290851275006 -0.001426746984363339 0
289 0.001426746984363339 -0.008044290851275006 0
290 -0.001420352740345744 0.008064665573411452 0
291 0.002793093400050788 -0.007679597426968541 0
292 -0.007677788905789007 -0.002792355172075572 0
293 0.007679200592920329 0.002793521751875374 0
294 -0.005862541158847776 0.007187806868108664 0
295 0.007151620980114691 0.005873531836723514 0
296 0.005871779861609304 -0.00715000745624269 0
297 -0.007148954330016942 -0.005871224956590896 0
298 0.0007805727847486098 -0.00417951085659005 0
299 0.002032408904094082 -6.330548728747359e-05 0
300 -0.0001398139334321774 0.003190851161695864 0
301 0.0001205745695874205 0.006263562262492165 0
302 -0.002072159401314881 0.001301583147304309 0
303 -0.003776142153320253 0.004868429987951974 0
304 0.001735623843864612 0.002932598079086161 0
305 -0.0005635916511230318 0.005384556403041332 0
306 -0.004341560572824298 -5.681991398665886e-05 0
307 0.003788252950383951 0.002127366795866217 0
308 0.003943928885961148 -0.00423243615919159 0
309 0.000928136842395714 8.523728153640444e-05 0
310 -0.008221909637976942 0.004155241651988163 0
311 0.008215365631534029 -0.00416734870370498 0
312 0.004155241651988163 0.008221909637976942 0
313 -0.00416734870370498 -0.008215365631534029 0
314 -0.0004809364680941857 0.0007729175579707908 0
315 -0.0006248704893204368 0.001715690630006245 0
316 -0.00634423817706129 0.002722669300999288 0
317 0.006479866453482628 -0.00272861616854924 0
318 -0.002720838052846322 -0.006330266876434065 0
319 -0.007718249705571599 0.005025578523785879 0
320 0.005025578523785879 0.007718249705571599 0
321 0.007711237956168942 -0.005036843619924268 0
322 -0.005036843619924268 -0.007711237956168942 0
323 -0.002252219899291964 0.005135062677178961 0
324 0.003713449007228058 0.005156247702825184 0
325 0.005246055206534398 -0.003617026432027094 0
326 -0.003755095761116729 -0.005164798515062475 0
327 0.007039498162243394 0.0001181359345136876 0
328 -0.007047456537994036 -0.0001060065108549384 0
329 0.0001039181730533396 -0.007044018377048765 0
330 0.00342348733224293 -0.006168253703658229 0
331 -0.006156394212005582 -0.003422186531644934 0
332 0.006156764191129907 0.003436662326137062 0
333 -0.004323328160164836 -0.003907076943051801 0
334 0.005683072929329525 -0.001215829383733641 0
335 -0.001741065376244297 -0.001605083365195917 0
336 -0.001447679907142968 -0.005532168930966348 0
337 -0.0002610332597829813 -0.0008751907984464267 0
338 -0.006033029915061834 0.005609918191665252 0
339 0.00560225863018559 0.006184798582406132 0
340 0.006183664639207586 -0.005601980183461651 0
341 -0.00560162328118801 -0.006183026439538162 0
342 0.002433507490681551 0.007849490804879709 0
343 0.007948090571576829 -0.002549516804765407 0
344 -0.007948731988816736 0.00254931346790181 0
345 -0.002549407360751824 -0.00794783489437096 0
346 0.004263416764050795 0.003916259373900603 0
347 -0.0001324300156634692 0.007118093827035737 0
348 0.001411990682717304 0.007517118993336857 0
349 -0.005622480789918754 0.001365571835205676 0
350 -0.00396993037544746 -0.0009641785155880863 0
351 0.003911308249047964 0.001159901900967815 0
352 -0.003389243463101922 0.006572259963401071 0
353 0.000225631315962906 0.00223482192226502 0
354 0.001469869538314733 -0.006616943215154925 0
355 0.006611383221912143 0.001475205054782421 0
356 -0.006615537060526047 -0.001466858155245374 0
357 -0.00686240593368148 0.003746485802318113 0
358 0.003876233263787474 0.006896334959597792 0
359 0.00687838254012438 -0.003755013420596981 0
360 -0.003758347986832946 -0.0068583634270033 0
361 -0.001543618211164273 0.006724033063762012 0
362 0.0009291232815878307 0.005089640894224321 0
363 -0.004965191230670673 0.005880911289678725 0
364 0.002133965443441533 -0.001191722438611872 0
365 0.007758990306408035 -0.001066359939091833 0
366 -0.007760497475369377 0.001068433737819303 0
367 -0.001068546409239319 -0.007759420962034446 0
368 0.001747147743425864 0.001485432881530457 0
369 0.001279552079228881 -0.001451544362608541 0
370 0.004803595528886079 -0.006192982699144405 0
371 0.00619014519565628 0.00480445612455948 0
372 -0.00619169857507373 -0.004802325432430177 0
373 -0.003043641347028827 -0.003504976791776091 0
374 -0.002712540051501426 -0.004218227678418723 0
375 0.004382064003133537 -0.001507429961201653 0
376 0.004418482724458249 -0.002281013996833212 0
377 0.002818418087628282 -0.001818252001493847 0
378 -0.001528673111957645 -0.003011446147716874 0
379 -0.001103467023988381 0.002668610270321946 0
380 0.000946112993254004 0.006113810367143211 0
381 0.004536064812846158 -0.00362973433756169 0
382 -0.0031770214427923 0.005494194462327049 0
383 0.001454592855738031 0.003694711176076004 0
384 -0.00200356308542587 0.002924595520232538 0
385 0.00492517246576543 0.004254435831437055 0
386 -0.001249164774050509 -0.006379201231728489 0
387 -0.006400092518027495 0.001232309955398591 0
388 0.002846532110273483 0.001976612024459474 0
389 0.00335335463255701 0.000811549967029845 0
390 -0.006889386202889029 0.00484466524796155 0
391 0.004866095382190793 0.006913473708984888 0
392 0.006909938330835473 -0.00485399457681247 0
393 -0.004854325428363839 -0.00690764307385875 0
394 -0.002435291704835544 0.006763502704159294 0
395 -0.003446662073693512 0.0002555469631587149 0
396 -0.00125302914652301 -0.002159375391178363 0
397 0.0001856214406614633 0.004766827709668015 0
398 -0.002204412361768247 -0.005523484620144957 0
399 0.006397730370509005 -0.001210848908732572 0
400 -0.004944569333919316 -0.004255164881885991 0
401 -0.0001347120597299155 -0.004453980694872764 0
402 -0.007701496184480405 0.003507717841887259 0
403 0.00351666311416157 0.007670174958671127 0
404 0.007702472982564859 -0.003510033175982734 0
405 -0.003510391522896332 -0.007700220228084087 0
406 -0.005575455824511805 0.002192556119432607 0
407 0.004357533097307671 0.005450803880354345 0
408 0.005470559740341594 -0.004359740633828377 0
409 -0.00438086096280737 -0.005445105613621032 0
410 0.002240838789126239 0.00520058517555936 0
411 0.004275227484357427 -0.004948627030763369 0
412 -0.003318566607916728 -0.001018659982481666 0
413 -0.004582692996177114 0.003408122241020385 0
414 0.005654145432239678 -0.002677786580693549 0
415 -0.001832384973034594 0.0006162778258886043 0
416 -0.003288940045521925 0.002566581181839821 0
417 -0.004413605953891984 0.00264280168377065 0
418 0.002497004250255118 0.004493476161732953 0
419 -0.001808842199889552 -0.000806651728785208 0
420 0.002114767842157452 -0.006461706608589977 0
421 0.006454325147057263 0.002121467154434696 0
422 -0.006455336828343512 -0.002110985374289752 0
$EndNodes
$Elements
842
1 1 2 2 1 1 5
2 1 2 2 1 5 6
3 1 2 2 1 6 7
4 1 2 2 1 7 8
5 1 2 2 1 8 9
6 1 2 2 1 9 10
7 1 2 2 1 10 11
8 1 2 2 1 11 12
9 1 2 2 1 12 13
10 1 2 2 1 13 14
11 1 2 2 1 14 15
12 1 2 2 1 15 16
13 1 2 2 1 16 17
14 1 2 2 1 17 18
15 1 2 2 1 18 2
16 1 2 2 2 2 19
17 1 2 2 2 19 20
18 1 2 2 2 20 21
19 1 2 2 2 21 22
20 1 2 2 2 22 23
21 1 2 2 2 23 24
22 1 2 2 2 24 25
23 1 2 2 2 25 26
24 1 2 2 2 26 27
25 1 2 2 2 27 28
26 1 2 2 2 28 29
27 1 2 2 2 29 30
28 1 2 2 2 30 31
29 1 2 2 2 31 32
30 1 2 2 2 32 3
31 1 2 2 3 3 33
32 1 2 2 3 33 34
33 1 2 2 3 34 35
34 1 2 2 3 35 36
35 1 2 2 3 36 37
36 1 2 2 3 37 38
37 1 2 2 3 38 39
38 1 2 2 3 39 40
39 1 2 2 3 40 41
40 1 2 2 3 41 42
41 1 2 2 3 42 43
42 1 2 2 3 43 44
43 1 2 2 3 44 45
44 1 2 2 3 45 46
45 1 2 2 3 46 4
46 1 2 2 4 4 47
47 1 2 2 4 47 48
48 1 2 2 4 48 49
49 1 2 2 4 49 50
50 1 2 2 4 50 51
51 1 2 2 4 51 52
52 1 2 2 4 52 53
53 1 2 2 4 53 54
54 1 2 2 4 54 55
55 1 2 2 4 55 56
56 1 2 2 4 56 57
57 1 2 2 4 57 58
58 1 2 2 4 58 59
59 1 2 2 4 59 60
60 1 2 2 4 60 1
61 2 2 1 6 63 154 179
62 2 2 1 6 154 379 300
63 2 2 1 6 61 309 157
64 2 2 1 6 116 157 309
65 2 2 1 6 154 300 179
66 2 2 1 6 87 299 180
67 2 2 1 6 180 299 364
68 2 2 1 6 70 282 155
69 2 2 1 6 115 315 158
70 2 2 1 6 103 203 189
71 2 2 1 6 94 300 156
72 2 2 1 6 63 179 305
73 2 2 1 6 95 357 165
74 2 2 1 6 96 358 166
75 2 2 1 6 97 359 167
76 2 2 1 6 98 360 168
77 2 2 1 6 142 324 204
78 2 2 1 6 158 315 379
79 2 2 1 6 67 168 318
80 2 2 1 6 68 165 316
81 2 2 1 6 119 172 260
82 2 2 1 6 179 397 305
83 2 2 1 6 90 238 166
84 2 2 1 6 189 203 272
85 2 2 1 6 1 171 60
86 2 2 1 6 2 172 18
87 2 2 1 6 3 173 32
88 2 2 1 6 4 174 46
89 2 2 1 6 70 242 222
90 2 2 1 6 141 222 242
91 2 2 1 6 116 243 157
92 2 2 1 6 34 35 161
93 2 2 1 6 20 21 162
94 2 2 1 6 48 49 163
95 2 2 1 6 6 7 164
96 2 2 1 6 65 350 306
97 2 2 1 6 62 307 351
98 2 2 1 6 68 316 406
99 2 2 1 6 89 249 271
100 2 2 1 6 95 390 357
101 2 2 1 6 96 391 358
102 2 2 1 6 97 392 359
103 2 2 1 6 98 393 360
104 2 2 1 6 129 245 239
105 2 2 1 6 131 240 244
106 2 2 1 6 122 255 175
107 2 2 1 6 23 24 175
108 2 2 1 6 9 10 176
109 2 2 1 6 51 52 177
110 2 2 1 6 37 38 178
111 2 2 1 6 65 306 197
112 2 2 1 6 62 198 307
113 2 2 1 6 65 197 244
114 2 2 1 6 64 196 246
115 2 2 1 6 126 246 196
116 2 2 1 6 128 244 197
117 2 2 1 6 62 245 198
118 2 2 1 6 132 198 245
119 2 2 1 6 67 318 398
120 2 2 1 6 70 155 415
121 2 2 1 6 119 260 348
122 2 2 1 6 258 331 111
123 2 2 1 6 110 257 330
124 2 2 1 6 112 256 332
125 2 2 1 6 109 327 259
126 2 2 1 6 108 328 261
127 2 2 1 6 107 329 262
128 2 2 1 6 107 233 329
129 2 2 1 6 109 231 327
130 2 2 1 6 108 232 328
131 2 2 1 6 110 330 235
132 2 2 1 6 111 331 236
133 2 2 1 6 112 332 237
134 2 2 1 6 202 361 394
135 2 2 1 6 63 249 154
136 2 2 1 6 86 300 379
137 2 2 1 6 61 157 314
138 2 2 1 6 122 363 255
139 2 2 1 6 62 239 245
140 2 2 1 6 65 244 240
141 2 2 1 6 134 252 180
142 2 2 1 6 135 181 251
143 2 2 1 6 149 202 394
144 2 2 1 6 90 182 238
145 2 2 1 6 94 156 383
146 2 2 1 6 68 241 165
147 2 2 1 6 114 221 159
148 2 2 1 6 73 159 221
149 2 2 1 6 94 179 300
150 2 2 1 6 182 342 348
151 2 2 1 6 90 342 182
152 2 2 1 6 66 204 324
153 2 2 1 6 70 395 282
154 2 2 1 6 126 196 208
155 2 2 1 6 128 197 207
156 2 2 1 6 132 209 198
157 2 2 1 6 6 164 223
158 2 2 1 6 20 162 224
159 2 2 1 6 48 163 225
160 2 2 1 6 34 161 226
161 2 2 1 6 21 228 162
162 2 2 1 6 35 227 161
163 2 2 1 6 49 229 163
164 2 2 1 6 7 230 164
165 2 2 1 6 4 276 174
166 2 2 1 6 1 275 171
167 2 2 1 6 3 277 173
168 2 2 1 6 2 274 172
169 2 2 1 6 89 242 384
170 2 2 1 6 89 416 242
171 2 2 1 6 89 384 249
172 2 2 1 6 73 214 159
173 2 2 1 6 99 239 170
174 2 2 1 6 100 169 240
175 2 2 1 6 103 189 248
176 2 2 1 6 37 178 278
177 2 2 1 6 23 175 279
178 2 2 1 6 51 177 280
179 2 2 1 6 9 176 281
180 2 2 1 6 88 169 251
181 2 2 1 6 87 252 170
182 2 2 1 6 142 204 346
183 2 2 1 6 95 165 241
184 2 2 1 6 128 207 328
185 2 2 1 6 126 208 329
186 2 2 1 6 132 332 209
187 2 2 1 6 101 222 213
188 2 2 1 6 141 213 222
189 2 2 1 6 103 248 199
190 2 2 1 6 115 158 302
191 2 2 1 6 64 298 196
192 2 2 1 6 134 375 252
193 2 2 1 6 135 251 373
194 2 2 1 6 117 271 249
195 2 2 1 6 137 303 194
196 2 2 1 6 81 194 303
197 2 2 1 6 88 251 181
198 2 2 1 6 87 180 252
199 2 2 1 6 90 166 358
200 2 2 1 6 158 384 242
201 2 2 1 6 66 166 238
202 2 2 1 6 138 218 204
203 2 2 1 6 104 204 218
204 2 2 1 6 196 298 401
205 2 2 1 6 134 203 201
206 2 2 1 6 99 183 239
207 2 2 1 6 100 240 184
208 2 2 1 6 194 363 338
209 2 2 1 6 129 239 183
210 2 2 1 6 131 184 240
211 2 2 1 6 114 159 298
212 2 2 1 6 124 370 177
213 2 2 1 6 123 371 176
214 2 2 1 6 125 372 178
215 2 2 1 6 86 379 315
216 2 2 1 6 120 173 366
217 2 2 1 6 118 171 365
218 2 2 1 6 121 174 367
219 2 2 1 6 93 217 318
220 2 2 1 6 92 216 316
221 2 2 1 6 91 215 317
222 2 2 1 6 106 347 260
223 2 2 1 6 81 382 352
224 2 2 1 6 15 16 185
225 2 2 1 6 57 58 186
226 2 2 1 6 29 30 187
227 2 2 1 6 43 44 188
228 2 2 1 6 133 337 247
229 2 2 1 6 83 162 273
230 2 2 1 6 133 247 419
231 2 2 1 6 106 234 347
232 2 2 1 6 67 326 168
233 2 2 1 6 66 324 166
234 2 2 1 6 26 27 190
235 2 2 1 6 12 13 191
236 2 2 1 6 54 55 192
237 2 2 1 6 40 41 193
238 2 2 1 6 135 200 214
239 2 2 1 6 167 414 325
240 2 2 1 6 84 287 164
241 2 2 1 6 82 288 161
242 2 2 1 6 85 289 163
243 2 2 1 6 83 290 162
244 2 2 1 6 85 163 291
245 2 2 1 6 82 161 292
246 2 2 1 6 84 164 293
247 2 2 1 6 103 308 201
248 2 2 1 6 62 170 239
249 2 2 1 6 65 240 169
250 2 2 1 6 69 325 414
251 2 2 1 6 105 337 253
252 2 2 1 6 97 167 408
253 2 2 1 6 98 168 409
254 2 2 1 6 96 166 407
255 2 2 1 6 160 362 380
256 2 2 1 6 107 174 276
257 2 2 1 6 109 171 275
258 2 2 1 6 106 172 274
259 2 2 1 6 108 173 277
260 2 2 1 6 95 194 338
261 2 2 1 6 136 238 182
262 2 2 1 6 156 243 304
263 2 2 1 6 71 304 243
264 2 2 1 6 116 368 243
265 2 2 1 6 28 310 319
266 2 2 1 6 14 312 320
267 2 2 1 6 56 311 321
268 2 2 1 6 42 313 322
269 2 2 1 6 147 318 217
270 2 2 1 6 146 316 216
271 2 2 1 6 145 317 215
272 2 2 1 6 64 189 298
273 2 2 1 6 114 298 189
274 2 2 1 6 111 278 178
275 2 2 1 6 113 279 175
276 2 2 1 6 110 280 177
277 2 2 1 6 112 281 176
278 2 2 1 6 102 401 214
279 2 2 1 6 100 251 169
280 2 2 1 6 99 170 252
281 2 2 1 6 129 183 327
282 2 2 1 6 75 327 183
283 2 2 1 6 131 331 184
284 2 2 1 6 78 184 331
285 2 2 1 6 154 249 384
286 2 2 1 6 149 323 202
287 2 2 1 6 159 214 401
288 2 2 1 6 201 308 381
289 2 2 1 6 102 214 200
290 2 2 1 6 95 241 194
291 2 2 1 6 94 397 179
292 2 2 1 6 64 246 248
293 2 2 1 6 149 382 323
294 2 2 1 6 65 169 350
295 2 2 1 6 62 351 170
296 2 2 1 6 136 380 362
297 2 2 1 6 103 201 203
298 2 2 1 6 114 250 221
299 2 2 1 6 105 221 250
300 2 2 1 6 101 207 197
301 2 2 1 6 102 208 196
302 2 2 1 6 104 198 209
303 2 2 1 6 88 412 169
304 2 2 1 6 130 248 246
305 2 2 1 6 177 370 257
306 2 2 1 6 176 371 256
307 2 2 1 6 258 178 372
308 2 2 1 6 20 224 19
309 2 2 1 6 5 6 223
310 2 2 1 6 33 34 226
311 2 2 1 6 47 48 225
312 2 2 1 6 35 36 227
313 2 2 1 6 21 22 228
314 2 2 1 6 49 50 229
315 2 2 1 6 8 230 7
316 2 2 1 6 87 170 389
317 2 2 1 6 109 259 171
318 2 2 1 6 106 260 172
319 2 2 1 6 108 261 173
320 2 2 1 6 107 262 174
321 2 2 1 6 110 177 257
322 2 2 1 6 111 178 258
323 2 2 1 6 113 175 255
324 2 2 1 6 112 176 256
325 2 2 1 6 122 338 363
326 2 2 1 6 148 364 299
327 2 2 1 6 74 328 207
328 2 2 1 6 77 329 208
329 2 2 1 6 79 209 332
330 2 2 1 6 261 366 173
331 2 2 1 6 259 365 171
332 2 2 1 6 262 367 174
333 2 2 1 6 18 172 283
334 2 2 1 6 46 174 284
335 2 2 1 6 32 173 285
336 2 2 1 6 60 171 286
337 2 2 1 6 120 285 173
338 2 2 1 6 118 286 171
339 2 2 1 6 119 283 172
340 2 2 1 6 121 284 174
341 2 2 1 6 150 319 310
342 2 2 1 6 151 320 312
343 2 2 1 6 152 321 311
344 2 2 1 6 153 322 313
345 2 2 1 6 71 218 304
346 2 2 1 6 138 304 218
347 2 2 1 6 122 175 294
348 2 2 1 6 123 176 295
349 2 2 1 6 124 177 296
350 2 2 1 6 125 178 297
351 2 2 1 6 24 294 175
352 2 2 1 6 52 296 177
353 2 2 1 6 38 297 178
354 2 2 1 6 10 295 176
355 2 2 1 6 68 413 241
356 2 2 1 6 67 205 326
357 2 2 1 6 144 326 205
358 2 2 1 6 64 248 189
359 2 2 1 6 135 378 181
360 2 2 1 6 134 180 377
361 2 2 1 6 139 306 350
362 2 2 1 6 140 351 307
363 2 2 1 6 149 352 382
364 2 2 1 6 134 377 203
365 2 2 1 6 63 305 202
366 2 2 1 6 127 202 305
367 2 2 1 6 83 394 361
368 2 2 1 6 150 357 390
369 2 2 1 6 151 358 391
370 2 2 1 6 152 359 392
371 2 2 1 6 153 360 393
372 2 2 1 6 71 219 388
373 2 2 1 6 137 194 241
374 2 2 1 6 114 189 272
375 2 2 1 6 88 419 282
376 2 2 1 6 71 368 219
377 2 2 1 6 130 330 199
378 2 2 1 6 80 199 330
379 2 2 1 6 88 181 335
380 2 2 1 6 127 305 301
381 2 2 1 6 160 301 305
382 2 2 1 6 148 299 309
383 2 2 1 6 91 343 215
384 2 2 1 6 92 344 216
385 2 2 1 6 93 345 217
386 2 2 1 6 116 299 219
387 2 2 1 6 87 219 299
388 2 2 1 6 133 253 337
389 2 2 1 6 97 211 340
390 2 2 1 6 96 210 339
391 2 2 1 6 98 212 341
392 2 2 1 6 130 199 248
393 2 2 1 6 30 269 187
394 2 2 1 6 16 267 185
395 2 2 1 6 58 268 186
396 2 2 1 6 44 270 188
397 2 2 1 6 137 195 271
398 2 2 1 6 104 218 307
399 2 2 1 6 54 192 265
400 2 2 1 6 40 193 266
401 2 2 1 6 26 190 263
402 2 2 1 6 12 191 264
403 2 2 1 6 113 352 273
404 2 2 1 6 160 380 301
405 2 2 1 6 100 184 333
406 2 2 1 6 218 388 307
407 2 2 1 6 273 352 394
408 2 2 1 6 99 334 183
409 2 2 1 6 155 419 247
410 2 2 1 6 76 380 182
411 2 2 1 6 136 182 380
412 2 2 1 6 102 336 208
413 2 2 1 6 101 306 222
414 2 2 1 6 222 306 395
415 2 2 1 6 78 400 184
416 2 2 1 6 119 348 342
417 2 2 1 6 105 254 337
418 2 2 1 6 135 214 378
419 2 2 1 6 75 183 399
420 2 2 1 6 89 271 195
421 2 2 1 6 76 182 348
422 2 2 1 6 81 352 255
423 2 2 1 6 116 309 299
424 2 2 1 6 61 247 337
425 2 2 1 6 15 185 312
426 2 2 1 6 43 188 313
427 2 2 1 6 57 186 311
428 2 2 1 6 29 187 310
429 2 2 1 6 160 305 397
430 2 2 1 6 155 282 419
431 2 2 1 6 96 407 210
432 2 2 1 6 97 408 211
433 2 2 1 6 98 409 212
434 2 2 1 6 55 321 192
435 2 2 1 6 41 322 193
436 2 2 1 6 27 319 190
437 2 2 1 6 13 320 191
438 2 2 1 6 137 271 303
439 2 2 1 6 162 228 273
440 2 2 1 6 76 348 260
441 2 2 1 6 123 339 210
442 2 2 1 6 124 340 211
443 2 2 1 6 125 341 212
444 2 2 1 6 208 336 386
445 2 2 1 6 105 253 221
446 2 2 1 6 73 221 253
447 2 2 1 6 118 215 343
448 2 2 1 6 120 216 344
449 2 2 1 6 121 217 345
450 2 2 1 6 72 364 369
451 2 2 1 6 25 26 263
452 2 2 1 6 11 12 264
453 2 2 1 6 53 54 265
454 2 2 1 6 39 40 266
455 2 2 1 6 16 17 267
456 2 2 1 6 30 31 269
457 2 2 1 6 44 45 270
458 2 2 1 6 58 59 268
459 2 2 1 6 80 411 199
460 2 2 1 6 72 369 250
461 2 2 1 6 109 223 287
462 2 2 1 6 108 226 288
463 2 2 1 6 107 225 289
464 2 2 1 6 106 224 290
465 2 2 1 6 110 291 229
466 2 2 1 6 111 292 227
467 2 2 1 6 112 293 230
468 2 2 1 6 72 272 203
469 2 2 1 6 47 225 276
470 2 2 1 6 33 226 277
471 2 2 1 6 5 223 275
472 2 2 1 6 19 224 274
473 2 2 1 6 36 278 227
474 2 2 1 6 22 279 228
475 2 2 1 6 50 280 229
476 2 2 1 6 8 281 230
477 2 2 1 6 4 47 276
478 2 2 1 6 3 33 277
479 2 2 1 6 1 5 275
480 2 2 1 6 2 19 274
481 2 2 1 6 36 37 278
482 2 2 1 6 22 23 279
483 2 2 1 6 50 51 280
484 2 2 1 6 8 9 281
485 2 2 1 6 89 195 416
486 2 2 1 6 141 416 195
487 2 2 1 6 117 303 271
488 2 2 1 6 28 29 310
489 2 2 1 6 56 57 311
490 2 2 1 6 14 15 312
491 2 2 1 6 42 43 313
492 2 2 1 6 109 287 231
493 2 2 1 6 108 288 232
494 2 2 1 6 107 289 233
495 2 2 1 6 106 290 234
496 2 2 1 6 110 235 291
497 2 2 1 6 111 236 292
498 2 2 1 6 112 237 293
499 2 2 1 6 101 197 306
500 2 2 1 6 104 307 198
501 2 2 1 6 27 28 319
502 2 2 1 6 55 56 321
503 2 2 1 6 13 14 320
504 2 2 1 6 41 42 322
505 2 2 1 6 141 195 417
506 2 2 1 6 103 199 308
507 2 2 1 6 137 413 195
508 2 2 1 6 140 388 219
509 2 2 1 6 167 317 414
510 2 2 1 6 92 402 344
511 2 2 1 6 90 403 342
512 2 2 1 6 91 404 343
513 2 2 1 6 93 405 345
514 2 2 1 6 187 344 402
515 2 2 1 6 185 342 403
516 2 2 1 6 186 343 404
517 2 2 1 6 188 345 405
518 2 2 1 6 81 363 194
519 2 2 1 6 117 323 382
520 2 2 1 6 97 340 392
521 2 2 1 6 98 341 393
522 2 2 1 6 95 338 390
523 2 2 1 6 96 339 391
524 2 2 1 6 190 390 338
525 2 2 1 6 191 391 339
526 2 2 1 6 192 392 340
527 2 2 1 6 193 393 341
528 2 2 1 6 135 374 200
529 2 2 1 6 67 200 374
530 2 2 1 6 164 287 223
531 2 2 1 6 161 288 226
532 2 2 1 6 163 289 225
533 2 2 1 6 162 290 224
534 2 2 1 6 163 229 291
535 2 2 1 6 161 227 292
536 2 2 1 6 164 230 293
537 2 2 1 6 134 201 376
538 2 2 1 6 69 376 201
539 2 2 1 6 113 273 228
540 2 2 1 6 102 200 336
541 2 2 1 6 100 333 205
542 2 2 1 6 79 332 256
543 2 2 1 6 80 330 257
544 2 2 1 6 78 331 258
545 2 2 1 6 67 398 200
546 2 2 1 6 99 206 334
547 2 2 1 6 107 276 225
548 2 2 1 6 109 275 223
549 2 2 1 6 106 274 224
550 2 2 1 6 108 277 226
551 2 2 1 6 111 227 278
552 2 2 1 6 113 228 279
553 2 2 1 6 110 229 280
554 2 2 1 6 112 230 281
555 2 2 1 6 102 196 401
556 2 2 1 6 75 259 327
557 2 2 1 6 74 261 328
558 2 2 1 6 77 262 329
559 2 2 1 6 63 202 323
560 2 2 1 6 157 353 315
561 2 2 1 6 69 201 381
562 2 2 1 6 104 346 204
563 2 2 1 6 17 18 283
564 2 2 1 6 31 32 285
565 2 2 1 6 45 46 284
566 2 2 1 6 59 60 286
567 2 2 1 6 17 283 267
568 2 2 1 6 45 284 270
569 2 2 1 6 31 285 269
570 2 2 1 6 59 286 268
571 2 2 1 6 139 395 306
572 2 2 1 6 25 263 294
573 2 2 1 6 11 264 295
574 2 2 1 6 53 265 296
575 2 2 1 6 39 266 297
576 2 2 1 6 72 203 377
577 2 2 1 6 24 25 294
578 2 2 1 6 10 11 295
579 2 2 1 6 52 53 296
580 2 2 1 6 38 39 297
581 2 2 1 6 142 385 210
582 2 2 1 6 79 210 385
583 2 2 1 6 84 231 287
584 2 2 1 6 82 232 288
585 2 2 1 6 85 233 289
586 2 2 1 6 83 234 290
587 2 2 1 6 84 293 237
588 2 2 1 6 85 291 235
589 2 2 1 6 82 292 236
590 2 2 1 6 101 213 349
591 2 2 1 6 136 410 238
592 2 2 1 6 77 386 217
593 2 2 1 6 74 387 216
594 2 2 1 6 147 217 386
595 2 2 1 6 146 216 387
596 2 2 1 6 142 210 407
597 2 2 1 6 143 211 408
598 2 2 1 6 144 212 409
599 2 2 1 6 127 361 202
600 2 2 1 6 140 307 388
601 2 2 1 6 94 383 220
602 2 2 1 6 138 220 383
603 2 2 1 6 94 220 362
604 2 2 1 6 136 362 220
605 2 2 1 6 166 324 407
606 2 2 1 6 167 325 408
607 2 2 1 6 168 326 409
608 2 2 1 6 114 272 250
609 2 2 1 6 72 250 272
610 2 2 1 6 148 309 254
611 2 2 1 6 122 294 263
612 2 2 1 6 264 123 295
613 2 2 1 6 265 124 296
614 2 2 1 6 266 125 297
615 2 2 1 6 269 285 120
616 2 2 1 6 267 283 119
617 2 2 1 6 270 284 121
618 2 2 1 6 268 286 118
619 2 2 1 6 86 315 353
620 2 2 1 6 156 304 383
621 2 2 1 6 127 347 234
622 2 2 1 6 144 400 212
623 2 2 1 6 78 212 400
624 2 2 1 6 140 219 389
625 2 2 1 6 87 389 219
626 2 2 1 6 73 378 214
627 2 2 1 6 75 399 215
628 2 2 1 6 145 215 399
629 2 2 1 6 144 205 333
630 2 2 1 6 145 334 206
631 2 2 1 6 93 318 360
632 2 2 1 6 92 316 357
633 2 2 1 6 91 317 359
634 2 2 1 6 165 357 316
635 2 2 1 6 167 359 317
636 2 2 1 6 168 360 318
637 2 2 1 6 158 242 302
638 2 2 1 6 70 302 242
639 2 2 1 6 143 411 211
640 2 2 1 6 80 211 411
641 2 2 1 6 81 255 363
642 2 2 1 6 115 415 247
643 2 2 1 6 155 247 415
644 2 2 1 6 145 206 414
645 2 2 1 6 69 414 206
646 2 2 1 6 104 209 346
647 2 2 1 6 101 349 207
648 2 2 1 6 86 353 300
649 2 2 1 6 156 300 353
650 2 2 1 6 85 354 233
651 2 2 1 6 84 355 231
652 2 2 1 6 82 356 232
653 2 2 1 6 129 231 355
654 2 2 1 6 126 233 354
655 2 2 1 6 128 232 356
656 2 2 1 6 159 401 298
657 2 2 1 6 129 327 231
658 2 2 1 6 128 328 232
659 2 2 1 6 126 329 233
660 2 2 1 6 131 236 331
661 2 2 1 6 130 235 330
662 2 2 1 6 132 237 332
663 2 2 1 6 139 282 395
664 2 2 1 6 181 378 396
665 2 2 1 6 141 417 213
666 2 2 1 6 68 213 417
667 2 2 1 6 100 205 373
668 2 2 1 6 67 374 205
669 2 2 1 6 147 398 318
670 2 2 1 6 83 361 234
671 2 2 1 6 127 234 361
672 2 2 1 6 99 375 206
673 2 2 1 6 69 206 376
674 2 2 1 6 138 204 418
675 2 2 1 6 66 418 204
676 2 2 1 6 80 370 211
677 2 2 1 6 79 371 210
678 2 2 1 6 78 372 212
679 2 2 1 6 124 211 370
680 2 2 1 6 123 210 371
681 2 2 1 6 125 212 372
682 2 2 1 6 74 216 366
683 2 2 1 6 77 217 367
684 2 2 1 6 75 215 365
685 2 2 1 6 120 366 216
686 2 2 1 6 118 365 215
687 2 2 1 6 121 367 217
688 2 2 1 6 79 385 209
689 2 2 1 6 77 208 386
690 2 2 1 6 74 207 387
691 2 2 1 6 100 373 251
692 2 2 1 6 116 219 368
693 2 2 1 6 76 260 347
694 2 2 1 6 99 252 375
695 2 2 1 6 68 406 213
696 2 2 1 6 147 386 336
697 2 2 1 6 71 388 218
698 2 2 1 6 136 220 410
699 2 2 1 6 73 396 378
700 2 2 1 6 157 243 353
701 2 2 1 6 138 418 220
702 2 2 1 6 70 222 395
703 2 2 1 6 72 377 364
704 2 2 1 6 180 364 377
705 2 2 1 6 61 314 247
706 2 2 1 6 115 247 314
707 2 2 1 6 146 406 316
708 2 2 1 6 133 396 253
709 2 2 1 6 213 406 349
710 2 2 1 6 85 235 420
711 2 2 1 6 84 237 421
712 2 2 1 6 82 236 422
713 2 2 1 6 63 323 249
714 2 2 1 6 117 249 323
715 2 2 1 6 137 241 413
716 2 2 1 6 105 369 254
717 2 2 1 6 148 254 369
718 2 2 1 6 70 415 302
719 2 2 1 6 131 244 422
720 2 2 1 6 132 245 421
721 2 2 1 6 130 246 420
722 2 2 1 6 132 421 237
723 2 2 1 6 130 420 235
724 2 2 1 6 131 422 236
725 2 2 1 6 267 119 342
726 2 2 1 6 268 118 343
727 2 2 1 6 269 120 344
728 2 2 1 6 270 121 345
729 2 2 1 6 267 342 185
730 2 2 1 6 268 343 186
731 2 2 1 6 269 344 187
732 2 2 1 6 270 345 188
733 2 2 1 6 88 335 419
734 2 2 1 6 156 353 243
735 2 2 1 6 61 254 309
736 2 2 1 6 66 238 410
737 2 2 1 6 127 301 347
738 2 2 1 6 81 303 382
739 2 2 1 6 122 263 338
740 2 2 1 6 264 339 123
741 2 2 1 6 265 340 124
742 2 2 1 6 266 341 125
743 2 2 1 6 265 192 340
744 2 2 1 6 266 193 341
745 2 2 1 6 190 338 263
746 2 2 1 6 191 339 264
747 2 2 1 6 199 411 308
748 2 2 1 6 128 356 244
749 2 2 1 6 129 355 245
750 2 2 1 6 126 354 246
751 2 2 1 6 71 243 368
752 2 2 1 6 146 349 406
753 2 2 1 6 61 337 254
754 2 2 1 6 143 381 308
755 2 2 1 6 184 400 333
756 2 2 1 6 148 369 364
757 2 2 1 6 183 334 399
758 2 2 1 6 170 351 389
759 2 2 1 6 133 335 396
760 2 2 1 6 113 255 352
761 2 2 1 6 141 242 416
762 2 2 1 6 105 250 369
763 2 2 1 6 195 413 417
764 2 2 1 6 68 417 413
765 2 2 1 6 157 315 314
766 2 2 1 6 115 314 315
767 2 2 1 6 220 418 410
768 2 2 1 6 66 410 418
769 2 2 1 6 75 365 259
770 2 2 1 6 74 366 261
771 2 2 1 6 77 367 262
772 2 2 1 6 79 256 371
773 2 2 1 6 78 258 372
774 2 2 1 6 80 257 370
775 2 2 1 6 76 347 301
776 2 2 1 6 73 253 396
777 2 2 1 6 200 398 336
778 2 2 1 6 169 412 350
779 2 2 1 6 245 355 421
780 2 2 1 6 246 354 420
781 2 2 1 6 244 356 422
782 2 2 1 6 69 381 325
783 2 2 1 6 139 412 282
784 2 2 1 6 83 273 394
785 2 2 1 6 160 397 362
786 2 2 1 6 94 362 397
787 2 2 1 6 76 301 380
788 2 2 1 6 181 396 335
789 2 2 1 6 117 382 303
790 2 2 1 6 88 282 412
791 2 2 1 6 134 376 375
792 2 2 1 6 206 375 376
793 2 2 1 6 135 373 374
794 2 2 1 6 205 374 373
795 2 2 1 6 149 394 352
796 2 2 1 6 138 383 304
797 2 2 1 6 143 325 381
798 2 2 1 6 209 385 346
799 2 2 1 6 142 346 385
800 2 2 1 6 150 390 319
801 2 2 1 6 151 391 320
802 2 2 1 6 152 392 321
803 2 2 1 6 153 393 322
804 2 2 1 6 190 319 390
805 2 2 1 6 191 320 391
806 2 2 1 6 192 321 392
807 2 2 1 6 193 322 393
808 2 2 1 6 207 349 387
809 2 2 1 6 146 387 349
810 2 2 1 6 115 302 415
811 2 2 1 6 85 420 354
812 2 2 1 6 84 421 355
813 2 2 1 6 82 422 356
814 2 2 1 6 150 310 402
815 2 2 1 6 151 312 403
816 2 2 1 6 152 311 404
817 2 2 1 6 153 313 405
818 2 2 1 6 139 350 412
819 2 2 1 6 187 402 310
820 2 2 1 6 185 403 312
821 2 2 1 6 186 404 311
822 2 2 1 6 188 405 313
823 2 2 1 6 154 384 379
824 2 2 1 6 158 379 384
825 2 2 1 6 143 308 411
826 2 2 1 6 147 336 398
827 2 2 1 6 145 399 334
828 2 2 1 6 144 333 400
829 2 2 1 6 145 414 317
830 2 2 1 6 142 407 324
831 2 2 1 6 143 408 325
832 2 2 1 6 144 409 326
833 2 2 1 6 140 389 351
834 2 2 1 6 93 360 405
835 2 2 1 6 91 359 404
836 2 2 1 6 90 358 403
837 2 2 1 6 92 357 402
838 2 2 1 6 133 419 335
839 2 2 1 6 150 402 357
840 2 2 1 6 151 403 358
841 2 2 1 6 152 404 359
842 2 2 1 6 153 405 360
$EndElements
